<mxfile host="app.diagrams.net" modified="2024-06-21T22:35:55.072Z" agent="Mozilla/5.0 (X11; Linux x86_64) AppleWebKit/537.36 (KHTML, like Gecko) Chrome/126.0.0.0 Safari/537.36" etag="uUkH4Xs56-nFxDPjcRcT" version="24.6.1" type="device">
  <diagram name="Page-1" id="2cc2dc42-3aac-f2a9-1cec-7a8b7cbee084">
    <mxGraphModel dx="1990" dy="1146" grid="1" gridSize="10" guides="1" tooltips="1" connect="1" arrows="1" fold="1" page="1" pageScale="1" pageWidth="1169" pageHeight="827" background="none" math="0" shadow="0">
      <root>
        <mxCell id="0" />
        <mxCell id="1" parent="0" />
        <mxCell id="7026571954dc6520-1" value="" style="strokeWidth=1;shadow=0;dashed=0;align=center;html=1;shape=mxgraph.mockup.containers.browserWindow;rSize=0;strokeColor=#666666;mainText=,;recursiveResize=0;rounded=0;labelBackgroundColor=none;fontFamily=Verdana;fontSize=12" parent="1" vertex="1">
          <mxGeometry x="60" y="40" width="880" height="770" as="geometry" />
        </mxCell>
        <mxCell id="7026571954dc6520-2" value="Page 1" style="strokeWidth=1;shadow=0;dashed=0;align=center;html=1;shape=mxgraph.mockup.containers.anchor;fontSize=17;fontColor=#666666;align=left;" parent="7026571954dc6520-1" vertex="1">
          <mxGeometry x="60" y="12" width="110" height="26" as="geometry" />
        </mxCell>
        <mxCell id="7026571954dc6520-3" value="https://www.listatarefas.com" style="strokeWidth=1;shadow=0;dashed=0;align=center;html=1;shape=mxgraph.mockup.containers.anchor;rSize=0;fontSize=17;fontColor=#666666;align=left;" parent="7026571954dc6520-1" vertex="1">
          <mxGeometry x="130" y="60" width="250" height="26" as="geometry" />
        </mxCell>
        <mxCell id="C_4FqWznNhNhThYEc-Y1-2" value="" style="rounded=0;whiteSpace=wrap;html=1;" parent="7026571954dc6520-1" vertex="1">
          <mxGeometry x="120" y="150" width="640" height="590" as="geometry" />
        </mxCell>
        <mxCell id="C_4FqWznNhNhThYEc-Y1-8" value="" style="rounded=0;whiteSpace=wrap;html=1;fontSize=20;" parent="7026571954dc6520-1" vertex="1">
          <mxGeometry x="180" y="480" width="520" height="60" as="geometry" />
        </mxCell>
        <mxCell id="C_4FqWznNhNhThYEc-Y1-3" value="" style="rounded=0;whiteSpace=wrap;html=1;fontSize=20;" parent="7026571954dc6520-1" vertex="1">
          <mxGeometry x="180" y="390" width="520" height="60" as="geometry" />
        </mxCell>
        <mxCell id="C_4FqWznNhNhThYEc-Y1-26" value="+" style="rounded=0;whiteSpace=wrap;html=1;fontSize=20;" parent="7026571954dc6520-1" vertex="1">
          <mxGeometry x="180" y="300" width="50" height="60" as="geometry" />
        </mxCell>
        <mxCell id="7026571954dc6520-4" value="Lista de tarefas" style="text;html=1;points=[];align=center;verticalAlign=top;spacingTop=-4;fontSize=30;fontFamily=Verdana" parent="7026571954dc6520-1" vertex="1">
          <mxGeometry x="270" y="200" width="340" height="50" as="geometry" />
        </mxCell>
        <mxCell id="C_4FqWznNhNhThYEc-Y1-27" value="" style="rounded=0;whiteSpace=wrap;html=1;" parent="7026571954dc6520-1" vertex="1">
          <mxGeometry x="190" y="405" width="30" height="30" as="geometry" />
        </mxCell>
        <mxCell id="C_4FqWznNhNhThYEc-Y1-28" value="" style="rounded=0;whiteSpace=wrap;html=1;" parent="7026571954dc6520-1" vertex="1">
          <mxGeometry x="190" y="495" width="30" height="30" as="geometry" />
        </mxCell>
        <mxCell id="C_4FqWznNhNhThYEc-Y1-4" value="&lt;div&gt;&lt;span style=&quot;font-size: 12px; background-color: initial;&quot;&gt;Excluir&lt;/span&gt;&lt;br&gt;&lt;/div&gt;" style="rounded=0;whiteSpace=wrap;html=1;fontSize=20;align=center;fillColor=#f8cecc;strokeColor=#b85450;" parent="7026571954dc6520-1" vertex="1">
          <mxGeometry x="640" y="405" width="50" height="30" as="geometry" />
        </mxCell>
        <mxCell id="WMmj1u9hRXMdM6v7R6Er-5" value="&lt;span style=&quot;font-size: 12px;&quot;&gt;Tag&lt;/span&gt;" style="rounded=0;whiteSpace=wrap;html=1;fontSize=20;align=center;fillColor=#d5e8d4;strokeColor=#82b366;" parent="7026571954dc6520-1" vertex="1">
          <mxGeometry x="580" y="405" width="50" height="30" as="geometry" />
        </mxCell>
        <mxCell id="h7fuEAqXmooswlhWoOCj-1" value="&lt;span style=&quot;font-size: 12px;&quot;&gt;Prioridade&lt;/span&gt;" style="rounded=0;whiteSpace=wrap;html=1;fontSize=20;align=center;fillColor=#dae8fc;strokeColor=#6c8ebf;" parent="7026571954dc6520-1" vertex="1">
          <mxGeometry x="510" y="405" width="60" height="30" as="geometry" />
        </mxCell>
        <mxCell id="NmxEU8e2ZcjiU0VLO9Y5-1" value="Titulo&lt;div&gt;&lt;br&gt;&lt;/div&gt;&lt;div&gt;Descrição&lt;/div&gt;" style="text;html=1;align=center;verticalAlign=middle;whiteSpace=wrap;rounded=0;" vertex="1" parent="7026571954dc6520-1">
          <mxGeometry x="230" y="390" width="60" height="60" as="geometry" />
        </mxCell>
        <mxCell id="NmxEU8e2ZcjiU0VLO9Y5-27" value="Titulo&lt;div&gt;&lt;br&gt;&lt;/div&gt;&lt;div&gt;Descrição&lt;/div&gt;" style="text;html=1;align=center;verticalAlign=middle;whiteSpace=wrap;rounded=0;" vertex="1" parent="7026571954dc6520-1">
          <mxGeometry x="230" y="480" width="60" height="60" as="geometry" />
        </mxCell>
        <mxCell id="NmxEU8e2ZcjiU0VLO9Y5-28" value="status" style="text;html=1;align=center;verticalAlign=middle;whiteSpace=wrap;rounded=0;" vertex="1" parent="7026571954dc6520-1">
          <mxGeometry x="370" y="390" width="60" height="60" as="geometry" />
        </mxCell>
        <mxCell id="NmxEU8e2ZcjiU0VLO9Y5-29" value="status" style="text;html=1;align=center;verticalAlign=middle;whiteSpace=wrap;rounded=0;" vertex="1" parent="7026571954dc6520-1">
          <mxGeometry x="370" y="480" width="60" height="60" as="geometry" />
        </mxCell>
        <mxCell id="NmxEU8e2ZcjiU0VLO9Y5-30" value="&lt;span style=&quot;font-size: 12px;&quot;&gt;Tag&lt;/span&gt;" style="rounded=0;whiteSpace=wrap;html=1;fontSize=20;align=center;fillColor=#d5e8d4;strokeColor=#82b366;" vertex="1" parent="7026571954dc6520-1">
          <mxGeometry x="580" y="500" width="50" height="30" as="geometry" />
        </mxCell>
        <mxCell id="NmxEU8e2ZcjiU0VLO9Y5-31" value="&lt;div&gt;&lt;span style=&quot;font-size: 12px; background-color: initial;&quot;&gt;Excluir&lt;/span&gt;&lt;br&gt;&lt;/div&gt;" style="rounded=0;whiteSpace=wrap;html=1;fontSize=20;align=center;fillColor=#f8cecc;strokeColor=#b85450;" vertex="1" parent="7026571954dc6520-1">
          <mxGeometry x="640" y="500" width="50" height="30" as="geometry" />
        </mxCell>
        <mxCell id="NmxEU8e2ZcjiU0VLO9Y5-32" value="&lt;span style=&quot;font-size: 12px;&quot;&gt;Prioridade&lt;/span&gt;" style="rounded=0;whiteSpace=wrap;html=1;fontSize=20;align=center;fillColor=#dae8fc;strokeColor=#6c8ebf;" vertex="1" parent="7026571954dc6520-1">
          <mxGeometry x="510" y="500" width="60" height="30" as="geometry" />
        </mxCell>
        <mxCell id="WMmj1u9hRXMdM6v7R6Er-26" value="" style="strokeWidth=1;shadow=0;dashed=0;align=center;html=1;shape=mxgraph.mockup.containers.browserWindow;rSize=0;strokeColor=#666666;mainText=,;recursiveResize=0;rounded=0;labelBackgroundColor=none;fontFamily=Verdana;fontSize=12" parent="1" vertex="1">
          <mxGeometry x="70" y="880" width="870" height="770" as="geometry" />
        </mxCell>
        <mxCell id="WMmj1u9hRXMdM6v7R6Er-27" value="Page 1" style="strokeWidth=1;shadow=0;dashed=0;align=center;html=1;shape=mxgraph.mockup.containers.anchor;fontSize=17;fontColor=#666666;align=left;" parent="WMmj1u9hRXMdM6v7R6Er-26" vertex="1">
          <mxGeometry x="60" y="12" width="110" height="26" as="geometry" />
        </mxCell>
        <mxCell id="WMmj1u9hRXMdM6v7R6Er-28" value="https://www.listatarefas.com" style="strokeWidth=1;shadow=0;dashed=0;align=center;html=1;shape=mxgraph.mockup.containers.anchor;rSize=0;fontSize=17;fontColor=#666666;align=left;" parent="WMmj1u9hRXMdM6v7R6Er-26" vertex="1">
          <mxGeometry x="130" y="60" width="250" height="26" as="geometry" />
        </mxCell>
        <mxCell id="WMmj1u9hRXMdM6v7R6Er-29" value="" style="rounded=0;whiteSpace=wrap;html=1;" parent="WMmj1u9hRXMdM6v7R6Er-26" vertex="1">
          <mxGeometry x="120" y="150" width="640" height="590" as="geometry" />
        </mxCell>
        <mxCell id="WMmj1u9hRXMdM6v7R6Er-32" value="&amp;nbsp; Título da tarefa*" style="rounded=0;whiteSpace=wrap;html=1;fontSize=20;align=left;" parent="WMmj1u9hRXMdM6v7R6Er-26" vertex="1">
          <mxGeometry x="180" y="260" width="520" height="60" as="geometry" />
        </mxCell>
        <mxCell id="WMmj1u9hRXMdM6v7R6Er-34" value="Criar tarefa" style="text;html=1;points=[];align=center;verticalAlign=top;spacingTop=-4;fontSize=30;fontFamily=Verdana" parent="WMmj1u9hRXMdM6v7R6Er-26" vertex="1">
          <mxGeometry x="270" y="200" width="340" height="50" as="geometry" />
        </mxCell>
        <mxCell id="WMmj1u9hRXMdM6v7R6Er-44" value="Descrição" style="rounded=0;whiteSpace=wrap;html=1;fontSize=20;align=left;" parent="WMmj1u9hRXMdM6v7R6Er-26" vertex="1">
          <mxGeometry x="180" y="330" width="520" height="60" as="geometry" />
        </mxCell>
        <mxCell id="WMmj1u9hRXMdM6v7R6Er-46" value="&amp;nbsp; Data de conclusão" style="rounded=0;whiteSpace=wrap;html=1;fontSize=20;align=left;" parent="WMmj1u9hRXMdM6v7R6Er-26" vertex="1">
          <mxGeometry x="180" y="540" width="270" height="60" as="geometry" />
        </mxCell>
        <mxCell id="WMmj1u9hRXMdM6v7R6Er-47" value="&amp;nbsp; Tag" style="rounded=0;whiteSpace=wrap;html=1;fontSize=20;align=left;" parent="WMmj1u9hRXMdM6v7R6Er-26" vertex="1">
          <mxGeometry x="180" y="470" width="520" height="60" as="geometry" />
        </mxCell>
        <mxCell id="WMmj1u9hRXMdM6v7R6Er-48" value="Criar tarefa" style="rounded=0;whiteSpace=wrap;html=1;fontSize=20;fillColor=#cce5ff;strokeColor=#36393d;" parent="WMmj1u9hRXMdM6v7R6Er-26" vertex="1">
          <mxGeometry x="570" y="650" width="130" height="60" as="geometry" />
        </mxCell>
        <mxCell id="h7fuEAqXmooswlhWoOCj-9" value="&amp;nbsp; Dias para conclusão" style="rounded=0;whiteSpace=wrap;html=1;fontSize=20;align=left;" parent="WMmj1u9hRXMdM6v7R6Er-26" vertex="1">
          <mxGeometry x="460" y="540" width="240" height="60" as="geometry" />
        </mxCell>
        <mxCell id="WMmj1u9hRXMdM6v7R6Er-45" value="&amp;nbsp; Prioridade" style="rounded=0;whiteSpace=wrap;html=1;fontSize=20;align=left;fillColor=#ffcc99;strokeColor=#36393d;" parent="WMmj1u9hRXMdM6v7R6Er-26" vertex="1">
          <mxGeometry x="180" y="400" width="520" height="60" as="geometry" />
        </mxCell>
        <mxCell id="NmxEU8e2ZcjiU0VLO9Y5-33" value="" style="strokeWidth=1;shadow=0;dashed=0;align=center;html=1;shape=mxgraph.mockup.containers.browserWindow;rSize=0;strokeColor=#666666;mainText=,;recursiveResize=0;rounded=0;labelBackgroundColor=none;fontFamily=Verdana;fontSize=12" vertex="1" parent="1">
          <mxGeometry x="80" y="890" width="870" height="770" as="geometry" />
        </mxCell>
        <mxCell id="NmxEU8e2ZcjiU0VLO9Y5-34" value="Page 1" style="strokeWidth=1;shadow=0;dashed=0;align=center;html=1;shape=mxgraph.mockup.containers.anchor;fontSize=17;fontColor=#666666;align=left;" vertex="1" parent="NmxEU8e2ZcjiU0VLO9Y5-33">
          <mxGeometry x="60" y="12" width="110" height="26" as="geometry" />
        </mxCell>
        <mxCell id="NmxEU8e2ZcjiU0VLO9Y5-35" value="https://www.listatarefas.com" style="strokeWidth=1;shadow=0;dashed=0;align=center;html=1;shape=mxgraph.mockup.containers.anchor;rSize=0;fontSize=17;fontColor=#666666;align=left;" vertex="1" parent="NmxEU8e2ZcjiU0VLO9Y5-33">
          <mxGeometry x="130" y="60" width="250" height="26" as="geometry" />
        </mxCell>
        <mxCell id="NmxEU8e2ZcjiU0VLO9Y5-36" value="" style="rounded=0;whiteSpace=wrap;html=1;" vertex="1" parent="NmxEU8e2ZcjiU0VLO9Y5-33">
          <mxGeometry x="120" y="150" width="640" height="590" as="geometry" />
        </mxCell>
        <mxCell id="NmxEU8e2ZcjiU0VLO9Y5-37" value="&amp;nbsp; Título da tarefa*" style="rounded=0;whiteSpace=wrap;html=1;fontSize=20;align=left;" vertex="1" parent="NmxEU8e2ZcjiU0VLO9Y5-33">
          <mxGeometry x="180" y="260" width="520" height="60" as="geometry" />
        </mxCell>
        <mxCell id="NmxEU8e2ZcjiU0VLO9Y5-38" value="Editar tarefa" style="text;html=1;points=[];align=center;verticalAlign=top;spacingTop=-4;fontSize=30;fontFamily=Verdana" vertex="1" parent="NmxEU8e2ZcjiU0VLO9Y5-33">
          <mxGeometry x="270" y="200" width="340" height="50" as="geometry" />
        </mxCell>
        <mxCell id="NmxEU8e2ZcjiU0VLO9Y5-39" value="Descrição" style="rounded=0;whiteSpace=wrap;html=1;fontSize=20;align=left;" vertex="1" parent="NmxEU8e2ZcjiU0VLO9Y5-33">
          <mxGeometry x="180" y="330" width="520" height="60" as="geometry" />
        </mxCell>
        <mxCell id="NmxEU8e2ZcjiU0VLO9Y5-40" value="&amp;nbsp; Data de conclusão" style="rounded=0;whiteSpace=wrap;html=1;fontSize=20;align=left;" vertex="1" parent="NmxEU8e2ZcjiU0VLO9Y5-33">
          <mxGeometry x="180" y="540" width="270" height="60" as="geometry" />
        </mxCell>
        <mxCell id="NmxEU8e2ZcjiU0VLO9Y5-41" value="&amp;nbsp; Tag" style="rounded=0;whiteSpace=wrap;html=1;fontSize=20;align=left;" vertex="1" parent="NmxEU8e2ZcjiU0VLO9Y5-33">
          <mxGeometry x="180" y="470" width="520" height="60" as="geometry" />
        </mxCell>
        <mxCell id="NmxEU8e2ZcjiU0VLO9Y5-42" value="Editar tarefa" style="rounded=0;whiteSpace=wrap;html=1;fontSize=20;fillColor=#cce5ff;strokeColor=#36393d;" vertex="1" parent="NmxEU8e2ZcjiU0VLO9Y5-33">
          <mxGeometry x="570" y="650" width="130" height="60" as="geometry" />
        </mxCell>
        <mxCell id="NmxEU8e2ZcjiU0VLO9Y5-43" value="&amp;nbsp; Dias para conclusão" style="rounded=0;whiteSpace=wrap;html=1;fontSize=20;align=left;" vertex="1" parent="NmxEU8e2ZcjiU0VLO9Y5-33">
          <mxGeometry x="460" y="540" width="240" height="60" as="geometry" />
        </mxCell>
        <mxCell id="NmxEU8e2ZcjiU0VLO9Y5-44" value="&amp;nbsp; Prioridade" style="rounded=0;whiteSpace=wrap;html=1;fontSize=20;align=left;fillColor=#ffcc99;strokeColor=#36393d;" vertex="1" parent="NmxEU8e2ZcjiU0VLO9Y5-33">
          <mxGeometry x="180" y="400" width="520" height="60" as="geometry" />
        </mxCell>
      </root>
    </mxGraphModel>
  </diagram>
</mxfile>
